HIERARCHY
ROOT Bip001_Pelvis
{
  OFFSET 34.4345 95.6767 -26.8758
  CHANNELS 6 Xposition Yposition Zposition Zrotation Xrotation Yrotation
  JOINT Bip001_Spine
  {
    OFFSET 1.4188e-005 10.2191 -0.0116013
    CHANNELS 3 Zrotation Xrotation Yrotation
    JOINT Bip001_L_Thigh
    {
      OFFSET 11.0458 -10.2192 0.0116197
      CHANNELS 3 Zrotation Xrotation Yrotation
      JOINT Bip001_L_Calf
      {
        OFFSET -0.707118 -44.0221 0.360014
        CHANNELS 3 Zrotation Xrotation Yrotation
        JOINT Bip001_L_Foot
        {
          OFFSET -0.651902 -40.5938 -3.56146
          CHANNELS 3 Zrotation Xrotation Yrotation
          JOINT Bip001_L_Toe0
          {
            OFFSET 0.0530839 -10.2181 13.1504
            CHANNELS 3 Zrotation Xrotation Yrotation
            End Site
            {
              OFFSET -1.02532e-005 0 7.55606
            }
          }
        }
      }
    }
    JOINT Bip001_R_Thigh
    {
      OFFSET -11.0458 -10.2191 0.0115893
      CHANNELS 3 Zrotation Xrotation Yrotation
      JOINT Bip001_R_Calf
      {
        OFFSET 0.706994 -44.0221 0.35984
        CHANNELS 3 Zrotation Xrotation Yrotation
        JOINT Bip001_R_Foot
        {
          OFFSET 0.651786 -40.5938 -3.5613
          CHANNELS 3 Zrotation Xrotation Yrotation
          JOINT Bip001_R_Toe0
          {
            OFFSET -0.0531479 -10.2181 13.1504
            CHANNELS 3 Zrotation Xrotation Yrotation
            End Site
            {
              OFFSET -1.02894e-005 0 7.55606
            }
          }
        }
      }
    }
    JOINT Bip001_Spine1
    {
      OFFSET 1.87041e-005 14.5736 1.08638
      CHANNELS 3 Zrotation Xrotation Yrotation
      JOINT Bip001_Spine2
      {
        OFFSET 2.24614e-005 14.5058 -1.69078
        CHANNELS 3 Zrotation Xrotation Yrotation
        JOINT Bip001_Neck
        {
          OFFSET 2.20278e-005 15.3945 -0.489414
          CHANNELS 3 Zrotation Xrotation Yrotation
          JOINT Bip001_L_Clavicle
          {
            OFFSET 6.06036 -0.000579998 0.00836775
            CHANNELS 3 Zrotation Xrotation Yrotation
            JOINT Bip001_L_UpperArm
            {
              OFFSET 11.5509 -0.0600302 0.00193952
              CHANNELS 3 Zrotation Xrotation Yrotation
              JOINT Bip001_L_Forearm
              {
                OFFSET 25.9523 0.0806089 -2.15551
                CHANNELS 3 Zrotation Xrotation Yrotation
                JOINT Bip001_L_Hand
                {
                  OFFSET 32.2475 0.153767 1.63968
                  CHANNELS 3 Zrotation Xrotation Yrotation
                  JOINT Bip001_L_Finger0
                  {
                    OFFSET 6.04639 -2.20976 5.90322
                    CHANNELS 3 Zrotation Xrotation Yrotation
                    End Site
                    {
                      OFFSET 4.22375 -1.43895 0.606485
                    }
                  }
                  JOINT Bip001_L_Finger1
                  {
                    OFFSET 11.0826 -0.704819 -0.198153
                    CHANNELS 3 Zrotation Xrotation Yrotation
                    End Site
                    {
                      OFFSET 6.20027 -0.397518 -0.0787166
                    }
                  }
                }
              }
            }
          }
          JOINT Bip001_R_Clavicle
          {
            OFFSET -6.06037 -0.000563197 0.00835105
            CHANNELS 3 Zrotation Xrotation Yrotation
            JOINT Bip001_R_UpperArm
            {
              OFFSET -11.5509 -0.0599978 0.00190698
              CHANNELS 3 Zrotation Xrotation Yrotation
              JOINT Bip001_R_Forearm
              {
                OFFSET -25.9523 0.0806822 -2.15589
                CHANNELS 3 Zrotation Xrotation Yrotation
                JOINT Bip001_R_Hand
                {
                  OFFSET -32.2475 0.153859 1.63989
                  CHANNELS 3 Zrotation Xrotation Yrotation
                  JOINT Bip001_R_Finger0
                  {
                    OFFSET -6.04641 -2.20976 5.90317
                    CHANNELS 3 Zrotation Xrotation Yrotation
                    End Site
                    {
                      OFFSET -4.22376 -1.43895 0.60647
                    }
                  }
                  JOINT Bip001_R_Finger1
                  {
                    OFFSET -11.0826 -0.704794 -0.198182
                    CHANNELS 3 Zrotation Xrotation Yrotation
                    End Site
                    {
                      OFFSET -6.20028 -0.397504 -0.0787333
                    }
                  }
                }
              }
            }
          }
          JOINT Bip001_Head
          {
            OFFSET 1.09673e-005 11.2744 2.05948
            CHANNELS 3 Zrotation Xrotation Yrotation
            End Site
            {
              OFFSET 2.89576e-005 20.8808 -2.77728e-005
            }
          }
        }
      }
    }
  }
}
MOTION
Frames:	15
Frame Time:	0.04
35.4845 95.248 -29.3096 -1.82298 -3.57531 -16.0986 0.557876 2.82499 -1.4462 4.03282 2.98557 16.6771 0.0882368 11.1565 10.9119 -2.80176 -10.2233 -0.00702993 0.545795 -2.03424 -0.115924 -5.73464 -5.34765 2.60374 -1.27316 13.4428 2.83464 -4.27956 -8.07474 5.88162 3.1696 -10.7651 3.84761 1.18922 5.63482 -2.92524 1.18922 5.63484 -2.92525 3.82125 -5.11049 4.84051 -22.3099 9.79556 -11.5883 -48.4755 35.6099 -2.65425 12.9428 -5.83694 -27.1916 9.72409 1.31457 -3.74957 3.18055e-015 -1.59028e-015 -1.59028e-015 3.18055e-015 -1.59028e-015 -1.59028e-015 22.3157 9.7834 11.6954 62.8319 20.1965 -11.5411 -22.9197 20.8115 12.4416 -0.368116 -4.81684 3.3151 -2.08724e-015 -3.18055e-015 1.98785e-016 -1.98785e-015 -3.18056e-015 7.95139e-016 -3.63271 -3.66101 6.38624 
35.2597 95.2438 -29.3879 -1.66657 -3.53482 -16.7555 0.715127 2.84554 -1.62952 3.74454 3.0563 17.837 0.191028 10.9742 10.4241 -2.13493 -9.84047 0.0163084 0.649147 -2.41769 -0.19504 -5.80461 -5.852 3.40506 -1.29227 13.9219 2.90299 -4.33461 -8.28484 5.80488 3.1587 -10.7104 3.80855 1.51384 5.66959 -3.3005 1.51398 5.66968 -3.30058 2.86315 -5.88276 5.43735 -21.3272 10.6076 -11.6039 -48.3808 34.8316 -3.95889 11.7841 -7.95953 -26.9966 11.022 1.31494 -3.80323 3.18055e-015 6.36111e-015 -3.18055e-015 8.82782e-032 1.59028e-015 -3.18055e-015 23.4691 10.2929 11.2594 61.6435 19.018 -11.5294 -17.5435 19.9 9.66462 5.61691 -5.30763 3.45352 3.97569e-016 -6.36111e-015 7.95139e-016 1.19271e-015 -3.18056e-015 1.59028e-015 -2.35831 -2.7971 6.43158 
35.079 95.2482 -29.4485 -1.48581 -3.38109 -17.053 0.795064 2.80088 -1.73847 3.4744 3.1094 18.5092 0.396027 10.5688 9.90352 -2.01647 -9.49986 0.0190174 0.634392 -2.67382 -0.0634007 -5.86195 -6.20258 4.11498 -1.18945 14.1792 2.84083 -4.43706 -8.39535 5.56694 3.12438 -10.6239 3.79294 1.67828 5.57583 -3.52384 1.6761 5.57587 -3.5228 3.42849 -5.64974 5.75053 -21.8821 10.6286 -12.2233 -47.7713 35.017 -4.32138 11.3842 -8.16064 -27.5921 11.1703 1.21312 -3.87758 -3.18055e-015 4.77083e-015 -0 8.82782e-032 6.36111e-015 -7.95139e-016 22.9855 9.76843 10.2411 63.3742 21.7627 -14.1102 -17.4995 14.4719 9.03497 10.2782 -5.86094 2.5619 -0 0 1.59028e-015 -0 0 1.59028e-015 -2.484 -3.08377 6.94987 
34.8877 95.2555 -29.5041 -1.302 -3.22866 -17.0904 0.789202 2.72452 -1.83822 3.4059 3.16162 18.7169 0.397312 10.2058 9.64961 -1.8584 -9.1946 0.0226806 0.606047 -2.88977 0.0143748 -5.89286 -6.42551 4.41286 -1.02724 14.3641 2.73983 -4.49353 -8.57907 5.42891 3.08731 -10.5155 3.75182 1.6649 5.42213 -3.71979 1.66608 5.42194 -3.71979 4.55732 -5.02131 5.97873 -22.7318 10.258 -13.021 -47.2869 36.8561 -3.90875 12.0857 -7.509 -28.2724 10.9727 0.76925 -4.65486 -6.36111e-015 -1.59028e-015 1.59028e-015 -6.36111e-015 -1.59028e-015 2.38542e-015 22.4231 8.86231 8.95398 64.6638 22.5454 -16.5207 -19.8896 11.4035 9.67873 10.5356 -6.84264 2.3797 -7.95139e-016 6.36111e-015 -0 -3.53113e-031 1.27222e-014 1.59028e-015 -2.91512 -3.76417 7.55256 
34.672 95.2581 -29.5261 -1.3577 -3.33606 -17.0074 0.788581 2.72924 -2.0148 3.59696 3.33511 19.3771 0.383996 10.163 9.03301 -1.52812 -9.04948 0.0327704 0.754952 -3.11501 -0.108989 -5.70682 -6.30673 4.85531 -0.954092 14.4375 2.68835 -4.58026 -8.64104 5.14096 3.03406 -10.3802 3.72619 1.6827 5.42863 -4.07408 1.67701 5.42844 -4.0742 5.37412 -4.89802 6.42265 -23.2473 10.3311 -13.3813 -47.1278 38.598 -3.23649 12.7006 -7.00371 -29.0434 10.7398 0.218412 -5.24771 3.18055e-015 0 -1.98785e-015 -1.10348e-032 -1.59028e-015 -3.97569e-016 21.7264 8.11447 6.84124 64.3557 21.0561 -16.7182 -21.943 12.1302 11.4826 7.86061 -8.55295 4.89098 1.19271e-015 0 -1.59028e-015 1.59028e-015 0 -7.95139e-016 -3.36134 -3.9029 8.24624 
34.5065 95.2673 -29.5797 -1.50543 -3.40526 -16.7671 0.845591 2.72312 -2.22443 3.84826 3.30928 19.3551 0.3024 10.3575 8.90258 -1.15718 -8.77474 0.0294621 0.895285 -3.1315 -0.289067 -5.49348 -6.13028 5.56304 -0.792827 14.3737 2.52542 -4.80259 -8.53952 4.59549 3.02972 -10.3559 3.71109 1.7992 5.411 -4.49646 1.79952 5.41103 -4.49648 5.44972 -4.13613 7.03359 -23.0485 9.82951 -14.2343 -47.4883 39.7972 -2.49227 12.761 -6.9477 -29.3519 10.1356 0.379351 -5.70079 6.36111e-015 1.78906e-015 -5.96354e-016 9.54166e-015 1.78906e-015 -1.19271e-015 20.9896 6.57213 4.66726 63.7848 18.7065 -15.8506 -24.0002 12.4976 13.8068 3.67571 -9.17409 7.42106 2.03754e-015 3.18055e-015 4.96962e-016 6.70898e-016 3.18056e-015 3.97569e-016 -3.5644 -4.96187 8.95555 
34.3937 95.2589 -29.5483 -1.5806 -3.45039 -16.6775 0.883541 2.68248 -2.40324 4.02822 3.42228 20.1354 0.301295 10.5258 8.21354 -1.61795 -9.01729 0.0255086 0.734362 -3.27042 -0.0437444 -5.32796 -6.00475 5.84838 -0.858954 14.4484 2.54698 -4.94404 -8.58122 4.38203 3.03729 -10.3911 3.71159 1.88223 5.32513 -4.8556 1.88217 5.32515 -4.8556 5.68355 -3.30489 7.57684 -23.153 9.23481 -14.8607 -47.967 40.9139 -1.5434 12.8134 -6.55423 -29.3611 9.91053 0.0945593 -5.82938 -6.03464e-033 9.93923e-016 3.47873e-016 -1.44831e-032 1.19271e-015 6.95746e-016 20.2307 5.25709 3.26271 62.8836 12.8395 -14.8871 -27.6202 12.9593 17.6476 0.343497 -9.40768 8.33883 3.27995e-015 3.18055e-015 7.95139e-016 4.47265e-015 3.18056e-015 1.19271e-015 -4.13069 -5.64494 9.67219 
34.3241 95.2642 -29.4326 -1.71126 -3.58591 -16.8123 0.917195 2.65479 -2.49635 4.10709 3.86508 20.7735 0.221245 10.306 7.62209 -1.61215 -8.91712 0.0200852 0.647512 -3.33039 0.0698214 -5.26057 -5.71884 5.73458 -0.936212 14.3615 2.59615 -4.86283 -8.6016 4.64638 3.03866 -10.3857 3.71196 1.95126 5.26685 -5.04184 1.95193 5.26688 -5.04238 5.06241 -3.83987 7.84417 -22.7002 9.6201 -14.1655 -48.0423 42.4183 -0.247446 13.1711 -5.83336 -29.9829 9.45902 -0.432959 -6.13116 -6.36111e-015 -2.18663e-015 7.95139e-016 -3.18055e-015 -2.08724e-015 -6.4605e-016 20.9955 5.41258 2.32064 61.2088 2.5823 -14.4336 -32.385 13.0018 24.3322 -6.49187 -10.0902 7.90775 -1.20513e-015 -6.95746e-016 -7.95139e-016 1.72694e-015 -6.95747e-016 7.95139e-016 -3.52249 -4.77254 9.63622 
34.2602 95.2753 -29.2431 -2.07878 -4.01867 -17.0897 0.920222 2.67926 -2.44658 4.32905 4.58745 20.5687 0.0289772 10.255 7.95315 -1.32679 -8.87727 0.0338234 0.696421 -3.41416 0.0390594 -5.09238 -4.9281 5.49749 -1.02529 13.9317 2.59429 -4.72157 -8.56907 5.0536 3.04377 -10.3893 3.73045 1.95584 5.31919 -4.94387 1.95672 5.31913 -4.94386 5.32903 -2.5916 8.17608 -23.1002 8.50208 -14.3262 -48.1999 44.2525 1.51898 13.3635 -5.84631 -30.8083 9.45646 -0.665464 -6.22348 9.54166e-015 0 -1.78906e-015 6.36111e-015 5.96354e-016 -2.38542e-015 20.4006 3.91667 1.61146 60.5806 -7.48948 -14.9208 -36.9113 9.46099 33.7288 -15.2666 -9.53371 5.40296 -5.96354e-016 0 -0 -1.98785e-015 1.59028e-015 -2.38542e-015 -4.57003 -5.9016 10.3075 
34.3145 95.2483 -29.0382 -2.27816 -4.36491 -17.0454 0.890894 2.66484 -2.38682 4.42289 4.96038 20.4861 -0.0488045 10.5012 7.77461 -0.496772 -8.71543 0.0509628 0.907389 -3.90779 -0.127252 -5.12426 -4.33269 5.04964 -1.04178 13.8149 2.54119 -4.60048 -8.67399 5.4005 3.04952 -10.4197 3.74042 1.89692 5.28985 -4.82256 1.89607 5.28986 -4.82267 5.53874 -1.88474 8.64158 -23.064 7.89723 -14.5953 -49.505 45.4143 4.25442 13.6933 -6.11423 -31.7148 9.8385 -1.01349 -6.28864 -3.18055e-015 -1.98785e-016 8.94531e-016 -3.18055e-015 1.98785e-016 -1.39149e-015 20.2442 2.88909 0.62401 57.18 -19.0855 -16.0268 -43.2335 9.35613 47.0583 -20.6012 -10.4885 5.36604 -5.29669e-031 -6.36111e-015 -4.77083e-015 1.19271e-015 -3.18056e-015 -4.77083e-015 -5.45648 -6.20449 11.0204 
34.4157 95.2069 -28.8153 -2.56713 -4.74893 -16.8808 0.912683 2.65373 -2.34498 4.6568 5.23647 20.4396 -0.206125 11.1588 7.56474 -0.277733 -9.12756 0.0550228 0.906368 -3.99462 -0.125464 -5.15017 -3.65991 4.78104 -1.01649 13.6999 2.48005 -4.55875 -8.72467 5.53386 3.07969 -10.5173 3.78038 1.93608 5.26747 -4.74045 1.93626 5.26747 -4.74001 5.22371 -1.56333 9.22116 -22.6549 7.62292 -14.6971 -51.8514 45.2634 7.92454 14.1472 -6.3455 -32.8759 9.71654 -0.567319 -5.87405 3.18055e-015 1.78906e-015 7.20594e-016 3.18055e-015 1.81391e-015 1.31695e-015 20.184 2.28187 -0.00916978 50.5236 -34.0817 -19.2459 -50.2925 10.9786 66.0035 -23.3054 -12.1995 7.19995 7.95139e-016 0 -1.59028e-015 -0 -3.18056e-015 -0 -5.82031 -6.38165 11.5763 
34.6034 95.119 -28.6775 -2.89704 -5.09806 -15.973 0.952462 2.63165 -2.35009 5.20643 4.9996 19.5001 -0.638299 12.5233 7.38982 0.0769493 -9.76119 0.0633495 0.866171 -4.16334 0.0135859 -5.1583 -2.92547 4.05227 -0.957613 13.6129 2.42961 -4.65628 -8.79777 5.41033 3.15967 -10.7556 3.87253 2.01518 5.21774 -4.75104 2.01518 5.21773 -4.75105 5.07921 -1.36616 9.72455 -22.5074 7.58315 -15.088 -52.6504 43.8196 9.8983 13.9706 -5.17221 -33.366 9.34265 -0.234447 -5.18698 9.54166e-015 3.97569e-016 3.97569e-016 9.54166e-015 0 5.96354e-016 19.5893 1.96672 -0.324426 40.897 -48.4674 -24.6179 -52.3952 9.73562 84.3602 -24.659 -13.7629 7.40874 3.18055e-015 -6.36111e-015 1.59028e-015 3.18055e-015 -1.27222e-014 -0 -6.41273 -6.40592 12.1413 
34.8434 94.9424 -28.5857 -3.18576 -5.53121 -14.9896 0.877635 2.63796 -2.1865 5.77841 4.36281 18.8438 -0.750209 14.5155 6.56492 1.36684 -10.2182 0.105095 1.09037 -4.86333 -0.0481277 -5.07526 -2.49438 3.14994 -0.973974 14.229 2.46813 -4.84922 -9.14782 5.2275 3.26325 -11.0457 3.96676 1.85845 5.24071 -4.42019 1.85845 5.2411 -4.42021 5.18151 -1.71192 9.88239 -22.4073 8.01842 -15.4192 -53.5736 42.7664 11.7391 14.1353 -4.61207 -33.1204 8.91525 0.73652 -4.6961 9.54166e-015 0 7.95139e-016 9.54166e-015 -3.97569e-016 7.95139e-016 19.634 2.18027 -0.81783 37.0062 -52.3607 -23.7181 -48.7943 4.32455 90.934 -27.9436 -14.0618 6.73206 0 0 -3.18055e-015 -1.59028e-015 0 -6.36111e-015 -6.89783 -5.93107 12.409 
35.0487 94.6274 -28.5836 -3.75356 -5.94802 -13.666 0.813104 2.67972 -2.00231 7.03324 3.03094 17.122 -1.42255 17.8353 6.48187 2.99313 -11.1206 0.182403 1.22094 -5.59679 -0.025823 -4.61052 -2.31138 2.26323 -0.949435 15.445 2.65298 -5.33924 -9.67968 4.47236 3.40044 -11.4153 4.0742 1.72026 5.32906 -4.04918 1.71799 5.32907 -4.04887 5.4556 -1.64649 9.96731 -22.3849 8.03643 -15.8273 -54.101 41.556 12.9408 14.7304 -2.86092 -32.3934 8.77254 1.07268 -4.60072 -6.36111e-015 0 -3.97569e-016 -6.36111e-015 0 -0 19.1964 2.1832 -0.77434 35.7361 -56.6593 -19.2213 -47.4138 1.38646 95.1714 -29.7544 -14.5159 6.48023 3.18055e-015 -3.18055e-015 1.59028e-015 3.18055e-015 -3.18056e-015 1.59028e-015 -7.66488 -6.15831 12.6662 
35.2119 94.1319 -28.6876 -4.55398 -6.33636 -11.7997 0.791716 2.76182 -1.85981 8.7872 1.04245 15.6547 -2.25936 22.1113 5.68842 5.29133 -11.9836 0.320526 1.45038 -6.56204 -0.099469 -3.82922 -2.50561 1.7816 -0.732849 17.4411 2.64149 -6.14687 -10.4324 2.97787 3.58383 -11.893 4.20099 1.67609 5.49603 -3.76181 1.68156 5.49627 -3.76343 5.4634 -2.17809 9.8392 -22.2663 8.55356 -15.9161 -54.2134 40.7794 13.2003 14.8031 -2.47741 -30.9934 8.17463 1.26495 -4.17997 -3.18055e-015 0 7.95139e-016 -9.54166e-015 -1.59028e-015 7.95139e-016 19.228 3.29113 1.0369 36.77 -61.1963 -11.7551 -48.7166 -0.118439 96.6311 -32.3732 -15.1033 6.20012 7.95139e-015 3.18055e-015 -0 7.95139e-015 0 1.59028e-015 -7.71459 -6.05474 12.5578 
